# xmcd CD database file
#
# Track frame offsets:
#	150
#	15725
#	28650
#	49737
#	65200
#	79600
#	90912
#	104062
#	119062
#	130562
#	145575
#	166000
#
# Disc length: 2367 seconds
#
# Revision: 0
# Processed by: cddbd v1.4PL0 Copyright (c) Steve Scherf et al.
# Submitted via: CDex 1.50Beta3
#
DISCID=99093d0c
DTITLE=Big Bill Broonzy - Round Midnight
DYEAR=2001
DGENRE=Blues
TTITLE0=Big Bill Blues
TTITLE1=Little City Woman
TTITLE2=Back Water Blues
TTITLE3=Guitar Shuffle
TTITLE4=Romance Without Finance
TTITLE5=Jacqueline
TTITLE6=Lonesome
TTITLE7=House Rent Stomp
TTITLE8=Willie Mae Blues
TTITLE9=Saturday Evening Blues
TTITLE10=Louise Louise Blues
TTITLE11=Key To The Highway
EXTD=YEAR: 2001
EXTT0=
EXTT1=
EXTT2=
EXTT3=
EXTT4=
EXTT5=
EXTT6=
EXTT7=
EXTT8=
EXTT9=
EXTT10=
EXTT11=
PLAYORDER=
